# Blender v2.82 (sub 7) OBJ File: ''
# www.blender.org
mtllib Cube.001.mtl
o Cube.001
v 0.204313 0.082054 0.266189
v -0.341738 0.057813 0.139037
v -0.363515 0.063710 0.153593
v 0.180001 0.093988 0.279881
v 0.198946 0.065496 -0.063039
v -0.359413 0.080479 -0.195400
v -0.340520 0.077406 -0.215477
v 0.216680 0.058614 -0.075725
vt 0.625000 0.500000
vt 0.875000 0.500000
vt 0.875000 0.750000
vt 0.625000 0.750000
vt 0.375000 0.750000
vt 0.625000 1.000000
vt 0.375000 1.000000
vt 0.375000 0.000000
vt 0.625000 0.000000
vt 0.625000 0.250000
vt 0.375000 0.250000
vt 0.125000 0.500000
vt 0.375000 0.500000
vt 0.125000 0.750000
vn 0.0622 0.8867 -0.4582
vn 0.0098 -0.9998 0.0173
vn 0.2570 0.9650 0.0518
vn -0.0800 -0.9751 0.2069
vn -0.3802 -0.9234 0.0526
vn -0.0036 1.0000 -0.0056
usemtl Material.001
s 1
f 1/1/1 2/2/1 3/3/1 4/4/1
f 5/5/2 4/4/2 3/6/2 6/7/2
f 6/8/3 3/9/3 2/10/3 7/11/3
f 7/12/4 8/13/4 5/5/4 6/14/4
f 8/13/5 1/1/5 4/4/5 5/5/5
f 7/11/6 2/10/6 1/1/6 8/13/6
